<svg width="20" height="20" viewBox="0 0 20 20" fill="none" xmlns="http://www.w3.org/2000/svg">
<mask id="path-1-inside-1_912_11" fill="white">
<path d="M15.9375 8.58301e-06H4.06251C3.5287 -0.00108978 2.99994 0.10324 2.50656 0.307011C2.01318 0.510781 1.56489 0.809981 1.18744 1.18744C0.809981 1.56489 0.510781 2.01318 0.307011 2.50656C0.10324 2.99994 -0.00108978 3.5287 8.58301e-06 4.06251V15.9375C8.58301e-06 18.1875 1.81251 20 4.06251 20H9.56251C11.8125 20 13.625 18.1875 13.625 15.9375V13.875H15.9375C18.1875 13.875 20 12.0625 20 9.8125V4.06251C20 1.81251 18.1875 8.58301e-06 15.9375 8.58301e-06ZM13.75 1.06251H15.9375C16.7332 1.06251 17.4962 1.37858 18.0588 1.94119C18.6214 2.5038 18.9375 3.26686 18.9375 4.06251V6.31251H13.75V1.06251ZM12.5625 7.50001V12.875H7.37501V7.50001H12.5625ZM7.37501 1.00001H12.5625V6.31251H7.37501V1.00001ZM1.06251 4.00001C1.06251 3.20436 1.37858 2.4413 1.94119 1.87869C2.5038 1.31608 3.26686 1.00001 4.06251 1.00001H6.25001V6.31251H1.06251V4.00001ZM6.25001 7.50001V12.875H1.00001V7.50001H6.25001ZM6.25001 18.9375H4.00001C3.20436 18.9375 2.4413 18.6214 1.87869 18.0588C1.31608 17.4962 1.00001 16.7332 1.00001 15.9375V14H6.25001V18.9375ZM12.5625 16C12.5625 16.7957 12.2464 17.5587 11.6838 18.1213C11.1212 18.6839 10.3582 19 9.56251 19H7.37501V14.0625H12.5625V16ZM18.9375 9.87501C18.9375 10.6707 18.6214 11.4337 18.0588 11.9963C17.4962 12.5589 16.7332 12.875 15.9375 12.875H13.75V7.50001H18.9375V9.87501Z"/>
</mask>
<path d="M15.9375 8.58301e-06H4.06251C3.5287 -0.00108978 2.99994 0.10324 2.50656 0.307011C2.01318 0.510781 1.56489 0.809981 1.18744 1.18744C0.809981 1.56489 0.510781 2.01318 0.307011 2.50656C0.10324 2.99994 -0.00108978 3.5287 8.58301e-06 4.06251V15.9375C8.58301e-06 18.1875 1.81251 20 4.06251 20H9.56251C11.8125 20 13.625 18.1875 13.625 15.9375V13.875H15.9375C18.1875 13.875 20 12.0625 20 9.8125V4.06251C20 1.81251 18.1875 8.58301e-06 15.9375 8.58301e-06ZM13.75 1.06251H15.9375C16.7332 1.06251 17.4962 1.37858 18.0588 1.94119C18.6214 2.5038 18.9375 3.26686 18.9375 4.06251V6.31251H13.75V1.06251ZM12.5625 7.50001V12.875H7.37501V7.50001H12.5625ZM7.37501 1.00001H12.5625V6.31251H7.37501V1.00001ZM1.06251 4.00001C1.06251 3.20436 1.37858 2.4413 1.94119 1.87869C2.5038 1.31608 3.26686 1.00001 4.06251 1.00001H6.25001V6.31251H1.06251V4.00001ZM6.25001 7.50001V12.875H1.00001V7.50001H6.25001ZM6.25001 18.9375H4.00001C3.20436 18.9375 2.4413 18.6214 1.87869 18.0588C1.31608 17.4962 1.00001 16.7332 1.00001 15.9375V14H6.25001V18.9375ZM12.5625 16C12.5625 16.7957 12.2464 17.5587 11.6838 18.1213C11.1212 18.6839 10.3582 19 9.56251 19H7.37501V14.0625H12.5625V16ZM18.9375 9.87501C18.9375 10.6707 18.6214 11.4337 18.0588 11.9963C17.4962 12.5589 16.7332 12.875 15.9375 12.875H13.75V7.50001H18.9375V9.87501Z" fill="#FEFEFE"/>
<path d="M4.06251 8.58301e-06L4.05222 5.00001H4.06251V8.58301e-06ZM8.58301e-06 4.06251H5.00002L5 4.05222L8.58301e-06 4.06251ZM13.625 13.875V8.875H8.625V13.875H13.625ZM18.9375 6.31251V11.3125H23.9375V6.31251H18.9375ZM13.75 6.31251H8.75V11.3125H13.75V6.31251ZM13.75 1.06251V-3.93749H8.75V1.06251H13.75ZM12.5625 7.50001H17.5625V2.50001H12.5625V7.50001ZM12.5625 12.875V17.875H17.5625V12.875H12.5625ZM7.37501 12.875H2.37501V17.875H7.37501V12.875ZM7.37501 7.50001V2.50001H2.37501V7.50001H7.37501ZM7.37501 1.00001V-3.99999H2.37501V1.00001H7.37501ZM12.5625 1.00001H17.5625V-3.99999H12.5625V1.00001ZM12.5625 6.31251V11.3125H17.5625V6.31251H12.5625ZM7.37501 6.31251H2.37501V11.3125H7.37501V6.31251ZM1.06251 4.00001H-3.93749H1.06251ZM4.06251 1.00001V-3.99999V1.00001ZM6.25001 1.00001H11.25V-3.99999H6.25001V1.00001ZM6.25001 6.31251V11.3125H11.25V6.31251H6.25001ZM1.06251 6.31251H-3.93749V11.3125H1.06251V6.31251ZM6.25001 7.50001H11.25V2.50001H6.25001V7.50001ZM6.25001 12.875V17.875H11.25V12.875H6.25001ZM1.00001 12.875H-3.99999V17.875H1.00001V12.875ZM1.00001 7.50001V2.50001H-3.99999V7.50001H1.00001ZM6.25001 18.9375V23.9375H11.25V18.9375H6.25001ZM1.00001 15.9375H-3.99999H1.00001ZM1.00001 14V9H-3.99999V14H1.00001ZM6.25001 14H11.25V9H6.25001V14ZM7.37501 19H2.37501V24H7.37501V19ZM7.37501 14.0625V9.0625H2.37501V14.0625H7.37501ZM12.5625 14.0625H17.5625V9.0625H12.5625V14.0625ZM13.75 12.875H8.75V17.875H13.75V12.875ZM13.75 7.50001V2.50001H8.75V7.50001H13.75ZM18.9375 7.50001H23.9375V2.50001H18.9375V7.50001ZM15.9375 -4.99999H4.06251V5.00001H15.9375V-4.99999ZM4.0728 -4.99998C2.88065 -5.00243 1.69976 -4.76943 0.597894 -4.31435L4.41522 4.92837C4.30012 4.97591 4.17675 5.00025 4.05222 5L4.0728 -4.99998ZM0.597894 -4.31435C-0.503973 -3.85927 -1.50512 -3.19107 -2.3481 -2.3481L4.72297 4.72297C4.63491 4.81103 4.53033 4.88084 4.41522 4.92837L0.597894 -4.31435ZM-2.3481 -2.3481C-3.19107 -1.50512 -3.85927 -0.503973 -4.31435 0.597894L4.92837 4.41522C4.88084 4.53033 4.81103 4.63491 4.72297 4.72297L-2.3481 -2.3481ZM-4.31435 0.597894C-4.76943 1.69976 -5.00243 2.88065 -4.99998 4.0728L5 4.05222C5.00025 4.17675 4.97591 4.30012 4.92837 4.41522L-4.31435 0.597894ZM-4.99999 4.06251V15.9375H5.00001V4.06251H-4.99999ZM-4.99999 15.9375C-4.99999 20.9489 -0.948915 25 4.06251 25V15C4.57393 15 5.00001 15.4261 5.00001 15.9375H-4.99999ZM4.06251 25H9.56251V15H4.06251V25ZM9.56251 25C14.5739 25 18.625 20.9489 18.625 15.9375H8.625C8.625 15.4261 9.05108 15 9.56251 15V25ZM18.625 15.9375V13.875H8.625V15.9375H18.625ZM13.625 18.875H15.9375V8.875H13.625V18.875ZM15.9375 18.875C20.9489 18.875 25 14.8239 25 9.8125H15C15 9.30108 15.4261 8.875 15.9375 8.875V18.875ZM25 9.8125V4.06251H15V9.8125H25ZM25 4.06251C25 -0.948915 20.9489 -4.99999 15.9375 -4.99999V5.00001C15.4261 5.00001 15 4.57393 15 4.06251H25ZM13.75 6.06251H15.9375V-3.93749H13.75V6.06251ZM15.9375 6.06251C15.4071 6.06251 14.8984 5.85179 14.5233 5.47672L21.5944 -1.59435C20.0941 -3.09464 18.0592 -3.93749 15.9375 -3.93749V6.06251ZM14.5233 5.47672C14.1482 5.10165 13.9375 4.59294 13.9375 4.06251H23.9375C23.9375 1.94077 23.0946 -0.0940581 21.5944 -1.59435L14.5233 5.47672ZM13.9375 4.06251V6.31251H23.9375V4.06251H13.9375ZM18.9375 1.31251H13.75V11.3125H18.9375V1.31251ZM18.75 6.31251V1.06251H8.75V6.31251H18.75ZM7.5625 7.50001V12.875H17.5625V7.50001H7.5625ZM12.5625 7.875H7.37501V17.875H12.5625V7.875ZM12.375 12.875V7.50001H2.37501V12.875H12.375ZM7.37501 12.5H12.5625V2.50001H7.37501V12.5ZM7.37501 6.00001H12.5625V-3.99999H7.37501V6.00001ZM7.5625 1.00001V6.31251H17.5625V1.00001H7.5625ZM12.5625 1.31251H7.37501V11.3125H12.5625V1.31251ZM12.375 6.31251V1.00001H2.37501V6.31251H12.375ZM6.06251 4.00001C6.06251 4.53044 5.85179 5.03915 5.47672 5.41422L-1.59435 -1.65685C-3.09464 -0.156555 -3.93749 1.87828 -3.93749 4.00001H6.06251ZM5.47672 5.41422C5.10165 5.78929 4.59294 6.00001 4.06251 6.00001V-3.99999C1.94078 -3.99999 -0.0940551 -3.15714 -1.59435 -1.65685L5.47672 5.41422ZM4.06251 6.00001H6.25001V-3.99999H4.06251V6.00001ZM1.25001 1.00001V6.31251H11.25V1.00001H1.25001ZM6.25001 1.31251H1.06251V11.3125H6.25001V1.31251ZM6.06251 6.31251V4.00001H-3.93749V6.31251H6.06251ZM1.25001 7.50001V12.875H11.25V7.50001H1.25001ZM6.25001 7.875H1.00001V17.875H6.25001V7.875ZM6.00001 12.875V7.50001H-3.99999V12.875H6.00001ZM1.00001 12.5H6.25001V2.50001H1.00001V12.5ZM6.25001 13.9375H4.00001V23.9375H6.25001V13.9375ZM4.00001 13.9375C4.53044 13.9375 5.03915 14.1482 5.41422 14.5233L-1.65685 21.5944C-0.156558 23.0946 1.87827 23.9375 4.00001 23.9375V13.9375ZM5.41422 14.5233C5.78929 14.8984 6.00001 15.4071 6.00001 15.9375H-3.99999C-3.99999 18.0592 -3.15714 20.0941 -1.65685 21.5944L5.41422 14.5233ZM6.00001 15.9375V14H-3.99999V15.9375H6.00001ZM1.00001 19H6.25001V9H1.00001V19ZM1.25001 14V18.9375H11.25V14H1.25001ZM7.5625 16C7.5625 15.4696 7.77322 14.9609 8.14829 14.5858L15.2194 21.6569C16.7196 20.1566 17.5625 18.1217 17.5625 16H7.5625ZM8.14829 14.5858C8.52337 14.2107 9.03207 14 9.56251 14V24C11.6842 24 13.7191 23.1571 15.2194 21.6569L8.14829 14.5858ZM9.56251 14H7.37501V24H9.56251V14ZM12.375 19V14.0625H2.37501V19H12.375ZM7.37501 19.0625H12.5625V9.0625H7.37501V19.0625ZM7.5625 14.0625V16H17.5625V14.0625H7.5625ZM13.9375 9.87501C13.9375 9.34457 14.1482 8.83586 14.5233 8.46079L21.5944 15.5319C23.0946 14.0316 23.9375 11.9967 23.9375 9.87501H13.9375ZM14.5233 8.46079C14.8984 8.08572 15.4071 7.875 15.9375 7.875V17.875C18.0592 17.875 20.0941 17.0321 21.5944 15.5319L14.5233 8.46079ZM15.9375 7.875H13.75V17.875H15.9375V7.875ZM18.75 12.875V7.50001H8.75V12.875H18.75ZM13.75 12.5H18.9375V2.50001H13.75V12.5ZM13.9375 7.50001V9.87501H23.9375V7.50001H13.9375Z" fill="#FEFEFE" mask="url(#path-1-inside-1_912_11)"/>
</svg>
